<svg id="visual" viewBox="0 0 1400 450" width="1400" height="450" xmlns="http://www.w3.org/2000/svg" xmlns:xlink="http://www.w3.org/1999/xlink" version="1.1"><rect x="0" y="0" width="1400" height="450" fill="#f8f9fa"></rect><path d="M0 335L33.3 329.7C66.7 324.3 133.3 313.7 200 308C266.7 302.3 333.3 301.7 400 309.2C466.7 316.7 533.3 332.3 600 335C666.7 337.7 733.3 327.3 800 325.3C866.7 323.3 933.3 329.7 1000 329.5C1066.7 329.3 1133.3 322.7 1200 317C1266.7 311.3 1333.3 306.7 1366.7 304.3L1400 302L1400 451L1366.7 451C1333.3 451 1266.7 451 1200 451C1133.3 451 1066.7 451 1000 451C933.3 451 866.7 451 800 451C733.3 451 666.7 451 600 451C533.3 451 466.7 451 400 451C333.3 451 266.7 451 200 451C133.3 451 66.7 451 33.3 451L0 451Z" fill="#ffc2c2"></path><path d="M0 337L33.3 336.7C66.7 336.3 133.3 335.7 200 335.5C266.7 335.3 333.3 335.7 400 334.7C466.7 333.7 533.3 331.3 600 332.7C666.7 334 733.3 339 800 341.2C866.7 343.3 933.3 342.7 1000 344.7C1066.7 346.7 1133.3 351.3 1200 352.7C1266.7 354 1333.3 352 1366.7 351L1400 350L1400 451L1366.7 451C1333.3 451 1266.7 451 1200 451C1133.3 451 1066.7 451 1000 451C933.3 451 866.7 451 800 451C733.3 451 666.7 451 600 451C533.3 451 466.7 451 400 451C333.3 451 266.7 451 200 451C133.3 451 66.7 451 33.3 451L0 451Z" fill="#f89f9e"></path><path d="M0 373L33.3 370.8C66.7 368.7 133.3 364.3 200 368.2C266.7 372 333.3 384 400 384.2C466.7 384.3 533.3 372.7 600 370.2C666.7 367.7 733.3 374.3 800 375.2C866.7 376 933.3 371 1000 373C1066.7 375 1133.3 384 1200 383.5C1266.7 383 1333.3 373 1366.7 368L1400 363L1400 451L1366.7 451C1333.3 451 1266.7 451 1200 451C1133.3 451 1066.7 451 1000 451C933.3 451 866.7 451 800 451C733.3 451 666.7 451 600 451C533.3 451 466.7 451 400 451C333.3 451 266.7 451 200 451C133.3 451 66.7 451 33.3 451L0 451Z" fill="#ed7c7a"></path><path d="M0 413L33.3 408.5C66.7 404 133.3 395 200 391.3C266.7 387.7 333.3 389.3 400 392.5C466.7 395.7 533.3 400.3 600 400.5C666.7 400.7 733.3 396.3 800 396.5C866.7 396.7 933.3 401.3 1000 404.5C1066.7 407.7 1133.3 409.3 1200 406.3C1266.7 403.3 1333.3 395.7 1366.7 391.8L1400 388L1400 451L1366.7 451C1333.3 451 1266.7 451 1200 451C1133.3 451 1066.7 451 1000 451C933.3 451 866.7 451 800 451C733.3 451 666.7 451 600 451C533.3 451 466.7 451 400 451C333.3 451 266.7 451 200 451C133.3 451 66.7 451 33.3 451L0 451Z" fill="#df5756"></path><path d="M0 415L33.3 416.8C66.7 418.7 133.3 422.3 200 421.8C266.7 421.3 333.3 416.7 400 413.5C466.7 410.3 533.3 408.7 600 407.7C666.7 406.7 733.3 406.3 800 407.3C866.7 408.3 933.3 410.7 1000 413C1066.7 415.3 1133.3 417.7 1200 417.3C1266.7 417 1333.3 414 1366.7 412.5L1400 411L1400 451L1366.7 451C1333.3 451 1266.7 451 1200 451C1133.3 451 1066.7 451 1000 451C933.3 451 866.7 451 800 451C733.3 451 666.7 451 600 451C533.3 451 466.7 451 400 451C333.3 451 266.7 451 200 451C133.3 451 66.7 451 33.3 451L0 451Z" fill="#ce2b32"></path></svg>