<svg id="visual" viewBox="0 0 1400 450" width="1400" height="450" xmlns="http://www.w3.org/2000/svg" xmlns:xlink="http://www.w3.org/1999/xlink" version="1.1"><path d="M0 327L200 337L400 335L600 308L800 355L1000 316L1200 349L1400 333L1400 451L1200 451L1000 451L800 451L600 451L400 451L200 451L0 451Z" fill="#1f1f1f"></path><path d="M0 346L200 338L400 331L600 350L800 338L1000 371L1200 327L1400 371L1400 451L1200 451L1000 451L800 451L600 451L400 451L200 451L0 451Z" fill="#3b3b3b"></path><path d="M0 356L200 379L400 356L600 374L800 385L1000 381L1200 392L1400 372L1400 451L1200 451L1000 451L800 451L600 451L400 451L200 451L0 451Z" fill="#5a5a5a"></path><path d="M0 381L200 401L400 401L600 380L800 391L1000 397L1200 388L1400 386L1400 451L1200 451L1000 451L800 451L600 451L400 451L200 451L0 451Z" fill="#7b7b7b"></path><path d="M0 423L200 416L400 430L600 417L800 412L1000 412L1200 422L1400 410L1400 451L1200 451L1000 451L800 451L600 451L400 451L200 451L0 451Z" fill="#9d9d9d"></path></svg>