<svg id="visual" viewBox="0 0 900 450" width="900" height="450" xmlns="http://www.w3.org/2000/svg" xmlns:xlink="http://www.w3.org/1999/xlink" version="1.1"><path d="M0 33L13.7 39.7C27.3 46.3 54.7 59.7 82 64.2C109.3 68.7 136.7 64.3 163.8 64.3C191 64.3 218 68.7 245.2 71.7C272.3 74.7 299.7 76.3 327 71.2C354.3 66 381.7 54 409 53.2C436.3 52.3 463.7 62.7 491 61.8C518.3 61 545.7 49 573 48.3C600.3 47.7 627.7 58.3 654.8 66.7C682 75 709 81 736.2 82.5C763.3 84 790.7 81 818 75C845.3 69 872.7 60 886.3 55.5L900 51L900 0L886.3 0C872.7 0 845.3 0 818 0C790.7 0 763.3 0 736.2 0C709 0 682 0 654.8 0C627.7 0 600.3 0 573 0C545.7 0 518.3 0 491 0C463.7 0 436.3 0 409 0C381.7 0 354.3 0 327 0C299.7 0 272.3 0 245.2 0C218 0 191 0 163.8 0C136.7 0 109.3 0 82 0C54.7 0 27.3 0 13.7 0L0 0Z" fill="#ff776e"></path><path d="M0 91L13.7 94C27.3 97 54.7 103 82 109.8C109.3 116.7 136.7 124.3 163.8 125.8C191 127.3 218 122.7 245.2 124.8C272.3 127 299.7 136 327 136C354.3 136 381.7 127 409 125.5C436.3 124 463.7 130 491 124.8C518.3 119.7 545.7 103.3 573 100.3C600.3 97.3 627.7 107.7 654.8 112.8C682 118 709 118 736.2 120.3C763.3 122.7 790.7 127.3 818 124.3C845.3 121.3 872.7 110.7 886.3 105.3L900 100L900 49L886.3 53.5C872.7 58 845.3 67 818 73C790.7 79 763.3 82 736.2 80.5C709 79 682 73 654.8 64.7C627.7 56.3 600.3 45.7 573 46.3C545.7 47 518.3 59 491 59.8C463.7 60.7 436.3 50.3 409 51.2C381.7 52 354.3 64 327 69.2C299.7 74.3 272.3 72.7 245.2 69.7C218 66.7 191 62.3 163.8 62.3C136.7 62.3 109.3 66.7 82 62.2C54.7 57.7 27.3 44.3 13.7 37.7L0 31Z" fill="#ff554b"></path><path d="M0 280L13.7 265C27.3 250 54.7 220 82 216.3C109.3 212.7 136.7 235.3 163.8 244.3C191 253.3 218 248.7 245.2 257.7C272.3 266.7 299.7 289.3 327 283.3C354.3 277.3 381.7 242.7 409 243.3C436.3 244 463.7 280 491 288.3C518.3 296.7 545.7 277.3 573 254.8C600.3 232.3 627.7 206.7 654.8 211.2C682 215.7 709 250.3 736.2 262.3C763.3 274.3 790.7 263.7 818 253.2C845.3 242.7 872.7 232.3 886.3 227.2L900 222L900 98L886.3 103.3C872.7 108.7 845.3 119.3 818 122.3C790.7 125.3 763.3 120.7 736.2 118.3C709 116 682 116 654.8 110.8C627.7 105.7 600.3 95.3 573 98.3C545.7 101.3 518.3 117.7 491 122.8C463.7 128 436.3 122 409 123.5C381.7 125 354.3 134 327 134C299.7 134 272.3 125 245.2 122.8C218 120.7 191 125.3 163.8 123.8C136.7 122.3 109.3 114.7 82 107.8C54.7 101 27.3 95 13.7 92L0 89Z" fill="#ff2525"></path><path d="M0 343L13.7 325C27.3 307 54.7 271 82 269.5C109.3 268 136.7 301 163.8 313C191 325 218 316 245.2 320.5C272.3 325 299.7 343 327 346C354.3 349 381.7 337 409 337.8C436.3 338.7 463.7 352.3 491 358.3C518.3 364.3 545.7 362.7 573 344.7C600.3 326.7 627.7 292.3 654.8 290.8C682 289.3 709 320.7 736.2 325.8C763.3 331 790.7 310 818 295.8C845.3 281.7 872.7 274.3 886.3 270.7L900 267L900 220L886.3 225.2C872.7 230.3 845.3 240.7 818 251.2C790.7 261.7 763.3 272.3 736.2 260.3C709 248.3 682 213.7 654.8 209.2C627.7 204.7 600.3 230.3 573 252.8C545.7 275.3 518.3 294.7 491 286.3C463.7 278 436.3 242 409 241.3C381.7 240.7 354.3 275.3 327 281.3C299.7 287.3 272.3 264.7 245.2 255.7C218 246.7 191 251.3 163.8 242.3C136.7 233.3 109.3 210.7 82 214.3C54.7 218 27.3 248 13.7 263L0 278Z" fill="#df1c21"></path><path d="M0 451L13.7 451C27.3 451 54.7 451 82 451C109.3 451 136.7 451 163.8 451C191 451 218 451 245.2 451C272.3 451 299.7 451 327 451C354.3 451 381.7 451 409 451C436.3 451 463.7 451 491 451C518.3 451 545.7 451 573 451C600.3 451 627.7 451 654.8 451C682 451 709 451 736.2 451C763.3 451 790.7 451 818 451C845.3 451 872.7 451 886.3 451L900 451L900 265L886.3 268.7C872.7 272.3 845.3 279.7 818 293.8C790.7 308 763.3 329 736.2 323.8C709 318.7 682 287.3 654.8 288.8C627.7 290.3 600.3 324.7 573 342.7C545.7 360.7 518.3 362.3 491 356.3C463.7 350.3 436.3 336.7 409 335.8C381.7 335 354.3 347 327 344C299.7 341 272.3 323 245.2 318.5C218 314 191 323 163.8 311C136.7 299 109.3 266 82 267.5C54.7 269 27.3 305 13.7 323L0 341Z" fill="#bf131d"></path></svg>