<svg id="visual" viewBox="0 0 1400 650" width="1400" height="650" xmlns="http://www.w3.org/2000/svg" xmlns:xlink="http://www.w3.org/1999/xlink" version="1.1"><path d="M0 395L33.3 409.2C66.7 423.3 133.3 451.7 200 458.7C266.7 465.7 333.3 451.3 400 452.2C466.7 453 533.3 469 600 459.7C666.7 450.3 733.3 415.7 800 404.5C866.7 393.3 933.3 405.7 1000 421.7C1066.7 437.7 1133.3 457.3 1200 455.5C1266.7 453.7 1333.3 430.3 1366.7 418.7L1400 407L1400 651L1366.7 651C1333.3 651 1266.7 651 1200 651C1133.3 651 1066.7 651 1000 651C933.3 651 866.7 651 800 651C733.3 651 666.7 651 600 651C533.3 651 466.7 651 400 651C333.3 651 266.7 651 200 651C133.3 651 66.7 651 33.3 651L0 651Z" fill="#101010"></path><path d="M0 446L33.3 444.3C66.7 442.7 133.3 439.3 200 439.8C266.7 440.3 333.3 444.7 400 452.3C466.7 460 533.3 471 600 478.7C666.7 486.3 733.3 490.7 800 486.5C866.7 482.3 933.3 469.7 1000 463.2C1066.7 456.7 1133.3 456.3 1200 460.5C1266.7 464.7 1333.3 473.3 1366.7 477.7L1400 482L1400 651L1366.7 651C1333.3 651 1266.7 651 1200 651C1133.3 651 1066.7 651 1000 651C933.3 651 866.7 651 800 651C733.3 651 666.7 651 600 651C533.3 651 466.7 651 400 651C333.3 651 266.7 651 200 651C133.3 651 66.7 651 33.3 651L0 651Z" fill="#3d1c19"></path><path d="M0 513L33.3 518.3C66.7 523.7 133.3 534.3 200 527.8C266.7 521.3 333.3 497.7 400 491.8C466.7 486 533.3 498 600 498C666.7 498 733.3 486 800 492.8C866.7 499.7 933.3 525.3 1000 537.7C1066.7 550 1133.3 549 1200 540.7C1266.7 532.3 1333.3 516.7 1366.7 508.8L1400 501L1400 651L1366.7 651C1333.3 651 1266.7 651 1200 651C1133.3 651 1066.7 651 1000 651C933.3 651 866.7 651 800 651C733.3 651 666.7 651 600 651C533.3 651 466.7 651 400 651C333.3 651 266.7 651 200 651C133.3 651 66.7 651 33.3 651L0 651Z" fill="#6a2421"></path><path d="M0 548L33.3 553.7C66.7 559.3 133.3 570.7 200 570.2C266.7 569.7 333.3 557.3 400 551.7C466.7 546 533.3 547 600 544.2C666.7 541.3 733.3 534.7 800 537.5C866.7 540.3 933.3 552.7 1000 561.8C1066.7 571 1133.3 577 1200 572.3C1266.7 567.7 1333.3 552.3 1366.7 544.7L1400 537L1400 651L1366.7 651C1333.3 651 1266.7 651 1200 651C1133.3 651 1066.7 651 1000 651C933.3 651 866.7 651 800 651C733.3 651 666.7 651 600 651C533.3 651 466.7 651 400 651C333.3 651 266.7 651 200 651C133.3 651 66.7 651 33.3 651L0 651Z" fill="#9b2929"></path><path d="M0 615L33.3 614.8C66.7 614.7 133.3 614.3 200 611.5C266.7 608.7 333.3 603.3 400 601.7C466.7 600 533.3 602 600 605.2C666.7 608.3 733.3 612.7 800 610.7C866.7 608.7 933.3 600.3 1000 601C1066.7 601.7 1133.3 611.3 1200 614.2C1266.7 617 1333.3 613 1366.7 611L1400 609L1400 651L1366.7 651C1333.3 651 1266.7 651 1200 651C1133.3 651 1066.7 651 1000 651C933.3 651 866.7 651 800 651C733.3 651 666.7 651 600 651C533.3 651 466.7 651 400 651C333.3 651 266.7 651 200 651C133.3 651 66.7 651 33.3 651L0 651Z" fill="#ce2b32"></path></svg>