<svg id="visual" viewBox="0 0 1400 450" width="1400" height="450" xmlns="http://www.w3.org/2000/svg" xmlns:xlink="http://www.w3.org/1999/xlink" version="1.1"><path d="M0 273L33.3 282.8C66.7 292.7 133.3 312.3 200 317.2C266.7 322 333.3 312 400 312.5C466.7 313 533.3 324 600 317.5C666.7 311 733.3 287 800 279.3C866.7 271.7 933.3 280.3 1000 291.5C1066.7 302.7 1133.3 316.3 1200 315C1266.7 313.7 1333.3 297.3 1366.7 289.2L1400 281L1400 451L1366.7 451C1333.3 451 1266.7 451 1200 451C1133.3 451 1066.7 451 1000 451C933.3 451 866.7 451 800 451C733.3 451 666.7 451 600 451C533.3 451 466.7 451 400 451C333.3 451 266.7 451 200 451C133.3 451 66.7 451 33.3 451L0 451Z" fill="#101010"></path><path d="M0 308L33.3 306.8C66.7 305.7 133.3 303.3 200 303.8C266.7 304.3 333.3 307.7 400 313.2C466.7 318.7 533.3 326.3 600 331.7C666.7 337 733.3 340 800 337C866.7 334 933.3 325 1000 320.3C1066.7 315.7 1133.3 315.3 1200 318.2C1266.7 321 1333.3 327 1366.7 330L1400 333L1400 451L1366.7 451C1333.3 451 1266.7 451 1200 451C1133.3 451 1066.7 451 1000 451C933.3 451 866.7 451 800 451C733.3 451 666.7 451 600 451C533.3 451 466.7 451 400 451C333.3 451 266.7 451 200 451C133.3 451 66.7 451 33.3 451L0 451Z" fill="#3d1c19"></path><path d="M0 355L33.3 358.7C66.7 362.3 133.3 369.7 200 365.2C266.7 360.7 333.3 344.3 400 340.3C466.7 336.3 533.3 344.7 600 344.7C666.7 344.7 733.3 336.3 800 341C866.7 345.7 933.3 363.3 1000 371.8C1066.7 380.3 1133.3 379.7 1200 374C1266.7 368.3 1333.3 357.7 1366.7 352.3L1400 347L1400 451L1366.7 451C1333.3 451 1266.7 451 1200 451C1133.3 451 1066.7 451 1000 451C933.3 451 866.7 451 800 451C733.3 451 666.7 451 600 451C533.3 451 466.7 451 400 451C333.3 451 266.7 451 200 451C133.3 451 66.7 451 33.3 451L0 451Z" fill="#6a2421"></path><path d="M0 379L33.3 383C66.7 387 133.3 395 200 394.7C266.7 394.3 333.3 385.7 400 381.7C466.7 377.7 533.3 378.3 600 376.3C666.7 374.3 733.3 369.7 800 371.7C866.7 373.7 933.3 382.3 1000 388.8C1066.7 395.3 1133.3 399.7 1200 396.5C1266.7 393.3 1333.3 382.7 1366.7 377.3L1400 372L1400 451L1366.7 451C1333.3 451 1266.7 451 1200 451C1133.3 451 1066.7 451 1000 451C933.3 451 866.7 451 800 451C733.3 451 666.7 451 600 451C533.3 451 466.7 451 400 451C333.3 451 266.7 451 200 451C133.3 451 66.7 451 33.3 451L0 451Z" fill="#9b2929"></path><path d="M0 426L33.3 425.8C66.7 425.7 133.3 425.3 200 423.3C266.7 421.3 333.3 417.7 400 416.5C466.7 415.3 533.3 416.7 600 418.8C666.7 421 733.3 424 800 422.7C866.7 421.3 933.3 415.7 1000 416.2C1066.7 416.7 1133.3 423.3 1200 425.2C1266.7 427 1333.3 424 1366.7 422.5L1400 421L1400 451L1366.7 451C1333.3 451 1266.7 451 1200 451C1133.3 451 1066.7 451 1000 451C933.3 451 866.7 451 800 451C733.3 451 666.7 451 600 451C533.3 451 466.7 451 400 451C333.3 451 266.7 451 200 451C133.3 451 66.7 451 33.3 451L0 451Z" fill="#ce2b32"></path></svg>